<svg xmlns="http://www.w3.org/2000/svg" xmlns:xlink="http://www.w3.org/1999/xlink" width="480"
    zoomAndPan="magnify" viewBox="0 0 360 503.999982" height="672"
    preserveAspectRatio="xMidYMid meet" version="1.0">
    <defs>
        <clipPath id="45ea7af66a">
            <path
                d="M 7.429688 132.210938 L 18 132.210938 L 18 143 L 7.429688 143 Z M 7.429688 132.210938 "
                clip-rule="nonzero" />
        </clipPath>
        <clipPath id="75b3497a08">
            <path d="M 49 132.210938 L 60 132.210938 L 60 143 L 49 143 Z M 49 132.210938 "
                clip-rule="nonzero" />
        </clipPath>
        <clipPath id="195230e7bb">
            <path d="M 92 132.210938 L 103 132.210938 L 103 143 L 92 143 Z M 92 132.210938 "
                clip-rule="nonzero" />
        </clipPath>
        <clipPath id="0351ec44f1">
            <path d="M 134 132.210938 L 145 132.210938 L 145 143 L 134 143 Z M 134 132.210938 "
                clip-rule="nonzero" />
        </clipPath>
        <clipPath id="373c176cea">
            <path d="M 176 132.210938 L 187 132.210938 L 187 143 L 176 143 Z M 176 132.210938 "
                clip-rule="nonzero" />
        </clipPath>
        <clipPath id="750c9307b1">
            <path d="M 219 132.210938 L 230 132.210938 L 230 143 L 219 143 Z M 219 132.210938 "
                clip-rule="nonzero" />
        </clipPath>
        <clipPath id="a5b58bcfe0">
            <path
                d="M 261 132.210938 L 271.429688 132.210938 L 271.429688 143 L 261 143 Z M 261 132.210938 "
                clip-rule="nonzero" />
        </clipPath>
        <clipPath id="553a927f95">
            <path d="M 7.429688 174 L 18 174 L 18 185 L 7.429688 185 Z M 7.429688 174 "
                clip-rule="nonzero" />
        </clipPath>
        <clipPath id="be40272685">
            <path d="M 261 174 L 271.429688 174 L 271.429688 185 L 261 185 Z M 261 174 "
                clip-rule="nonzero" />
        </clipPath>
        <clipPath id="2b8e57897a">
            <path d="M 7.429688 216 L 18 216 L 18 227 L 7.429688 227 Z M 7.429688 216 "
                clip-rule="nonzero" />
        </clipPath>
        <clipPath id="173e79ed68">
            <path d="M 261 216 L 271.429688 216 L 271.429688 227 L 261 227 Z M 261 216 "
                clip-rule="nonzero" />
        </clipPath>
        <clipPath id="b58f42eda6">
            <path d="M 7.429688 258 L 18 258 L 18 269 L 7.429688 269 Z M 7.429688 258 "
                clip-rule="nonzero" />
        </clipPath>
        <clipPath id="e7b77b72f3">
            <path d="M 261 258 L 271.429688 258 L 271.429688 269 L 261 269 Z M 261 258 "
                clip-rule="nonzero" />
        </clipPath>
        <clipPath id="f821f6a844">
            <path d="M 7.429688 301 L 18 301 L 18 312 L 7.429688 312 Z M 7.429688 301 "
                clip-rule="nonzero" />
        </clipPath>
        <clipPath id="e9c802d878">
            <path d="M 261 301 L 271.429688 301 L 271.429688 312 L 261 312 Z M 261 301 "
                clip-rule="nonzero" />
        </clipPath>
        <clipPath id="20b7cb9530">
            <path d="M 7.429688 343 L 18 343 L 18 354 L 7.429688 354 Z M 7.429688 343 "
                clip-rule="nonzero" />
        </clipPath>
        <clipPath id="c42ed4cbd0">
            <path d="M 261 343 L 271.429688 343 L 271.429688 354 L 261 354 Z M 261 343 "
                clip-rule="nonzero" />
        </clipPath>
        <clipPath id="a3be68099d">
            <path d="M 7.429688 386 L 18 386 L 18 396 L 7.429688 396 Z M 7.429688 386 "
                clip-rule="nonzero" />
        </clipPath>
        <clipPath id="28411522c1">
            <path d="M 261 386 L 271.429688 386 L 271.429688 396 L 261 396 Z M 261 386 "
                clip-rule="nonzero" />
        </clipPath>
        <clipPath id="c2ace0b82c">
            <path
                d="M 156.789062 54.148438 L 354.839844 54.148438 L 354.839844 252.195312 L 156.789062 252.195312 Z M 156.789062 54.148438 "
                clip-rule="nonzero" />
        </clipPath>
        <clipPath id="f94811b2de">
            <path d="M 177 132.210938 L 188 132.210938 L 188 143 L 177 143 Z M 177 132.210938 "
                clip-rule="nonzero" />
        </clipPath>
        <clipPath id="dd9ef88431">
            <path d="M 219 132.210938 L 230 132.210938 L 230 143 L 219 143 Z M 219 132.210938 "
                clip-rule="nonzero" />
        </clipPath>
        <clipPath id="ab23b264c4">
            <path d="M 262 132.210938 L 272 132.210938 L 272 143 L 262 143 Z M 262 132.210938 "
                clip-rule="nonzero" />
        </clipPath>
    </defs>
    <g clip-path="url(#45ea7af66a)">
        <path fill="#C778DD"
            d="M 17.335938 137.152344 C 17.335938 139.882812 15.125 142.09375 12.394531 142.09375 C 9.664062 142.09375 7.453125 139.882812 7.453125 137.152344 C 7.453125 134.421875 9.664062 132.210938 12.394531 132.210938 C 15.125 132.210938 17.335938 134.421875 17.335938 137.152344 "
            fill-opacity="1" fill-rule="nonzero" />
    </g>
    <g clip-path="url(#75b3497a08)">
        <path fill="#C778DD"
            d="M 59.691406 137.152344 C 59.691406 139.882812 57.480469 142.09375 54.75 142.09375 C 52.023438 142.09375 49.808594 139.882812 49.808594 137.152344 C 49.808594 134.421875 52.023438 132.210938 54.75 132.210938 C 57.480469 132.210938 59.691406 134.421875 59.691406 137.152344 "
            fill-opacity="1" fill-rule="nonzero" />
    </g>
    <g clip-path="url(#195230e7bb)">
        <path fill="#C778DD"
            d="M 102.050781 137.152344 C 102.050781 139.882812 99.835938 142.09375 97.105469 142.09375 C 94.378906 142.09375 92.167969 139.882812 92.167969 137.152344 C 92.167969 134.421875 94.378906 132.210938 97.105469 132.210938 C 99.835938 132.210938 102.050781 134.421875 102.050781 137.152344 "
            fill-opacity="1" fill-rule="nonzero" />
    </g>
    <g clip-path="url(#0351ec44f1)">
        <path fill="#C778DD"
            d="M 144.40625 137.152344 C 144.40625 139.882812 142.195312 142.09375 139.464844 142.09375 C 136.734375 142.09375 134.523438 139.882812 134.523438 137.152344 C 134.523438 134.421875 136.734375 132.210938 139.464844 132.210938 C 142.195312 132.210938 144.40625 134.421875 144.40625 137.152344 "
            fill-opacity="1" fill-rule="nonzero" />
    </g>
    <g clip-path="url(#373c176cea)">
        <path fill="#C778DD"
            d="M 186.761719 137.152344 C 186.761719 139.882812 184.550781 142.09375 181.820312 142.09375 C 179.089844 142.09375 176.878906 139.882812 176.878906 137.152344 C 176.878906 134.421875 179.089844 132.210938 181.820312 132.210938 C 184.550781 132.210938 186.761719 134.421875 186.761719 137.152344 "
            fill-opacity="1" fill-rule="nonzero" />
    </g>
    <g clip-path="url(#750c9307b1)">
        <path fill="#C778DD"
            d="M 229.117188 137.152344 C 229.117188 139.882812 226.90625 142.09375 224.175781 142.09375 C 221.445312 142.09375 219.234375 139.882812 219.234375 137.152344 C 219.234375 134.421875 221.445312 132.210938 224.175781 132.210938 C 226.90625 132.210938 229.117188 134.421875 229.117188 137.152344 "
            fill-opacity="1" fill-rule="nonzero" />
    </g>
    <g clip-path="url(#a5b58bcfe0)">
        <path fill="#C778DD"
            d="M 271.472656 137.152344 C 271.472656 139.882812 269.261719 142.09375 266.53125 142.09375 C 263.804688 142.09375 261.589844 139.882812 261.589844 137.152344 C 261.589844 134.421875 263.804688 132.210938 266.53125 132.210938 C 269.261719 132.210938 271.472656 134.421875 271.472656 137.152344 "
            fill-opacity="1" fill-rule="nonzero" />
    </g>
    <g clip-path="url(#553a927f95)">
        <path fill="#C778DD"
            d="M 17.335938 179.496094 C 17.335938 182.226562 15.125 184.441406 12.394531 184.441406 C 9.664062 184.441406 7.453125 182.226562 7.453125 179.496094 C 7.453125 176.769531 9.664062 174.554688 12.394531 174.554688 C 15.125 174.554688 17.335938 176.769531 17.335938 179.496094 "
            fill-opacity="1" fill-rule="nonzero" />
    </g>
    <path fill="#C778DD"
        d="M 59.691406 179.496094 C 59.691406 182.226562 57.480469 184.441406 54.75 184.441406 C 52.023438 184.441406 49.808594 182.226562 49.808594 179.496094 C 49.808594 176.769531 52.023438 174.554688 54.75 174.554688 C 57.480469 174.554688 59.691406 176.769531 59.691406 179.496094 "
        fill-opacity="1" fill-rule="nonzero" />
    <path fill="#C778DD"
        d="M 102.050781 179.496094 C 102.050781 182.226562 99.835938 184.441406 97.105469 184.441406 C 94.378906 184.441406 92.167969 182.226562 92.167969 179.496094 C 92.167969 176.769531 94.378906 174.554688 97.105469 174.554688 C 99.835938 174.554688 102.050781 176.769531 102.050781 179.496094 "
        fill-opacity="1" fill-rule="nonzero" />
    <path fill="#C778DD"
        d="M 144.40625 179.496094 C 144.40625 182.226562 142.195312 184.441406 139.464844 184.441406 C 136.734375 184.441406 134.523438 182.226562 134.523438 179.496094 C 134.523438 176.769531 136.734375 174.554688 139.464844 174.554688 C 142.195312 174.554688 144.40625 176.769531 144.40625 179.496094 "
        fill-opacity="1" fill-rule="nonzero" />
    <path fill="#C778DD"
        d="M 186.761719 179.496094 C 186.761719 182.226562 184.550781 184.441406 181.820312 184.441406 C 179.089844 184.441406 176.878906 182.226562 176.878906 179.496094 C 176.878906 176.769531 179.089844 174.554688 181.820312 174.554688 C 184.550781 174.554688 186.761719 176.769531 186.761719 179.496094 "
        fill-opacity="1" fill-rule="nonzero" />
    <path fill="#C778DD"
        d="M 229.117188 179.496094 C 229.117188 182.226562 226.90625 184.441406 224.175781 184.441406 C 221.445312 184.441406 219.234375 182.226562 219.234375 179.496094 C 219.234375 176.769531 221.445312 174.554688 224.175781 174.554688 C 226.90625 174.554688 229.117188 176.769531 229.117188 179.496094 "
        fill-opacity="1" fill-rule="nonzero" />
    <g clip-path="url(#be40272685)">
        <path fill="#C778DD"
            d="M 271.472656 179.496094 C 271.472656 182.226562 269.261719 184.441406 266.53125 184.441406 C 263.804688 184.441406 261.589844 182.226562 261.589844 179.496094 C 261.589844 176.769531 263.804688 174.554688 266.53125 174.554688 C 269.261719 174.554688 271.472656 176.769531 271.472656 179.496094 "
            fill-opacity="1" fill-rule="nonzero" />
    </g>
    <g clip-path="url(#2b8e57897a)">
        <path fill="#C778DD"
            d="M 17.335938 221.578125 C 17.335938 224.308594 15.125 226.523438 12.394531 226.523438 C 9.664062 226.523438 7.453125 224.308594 7.453125 221.578125 C 7.453125 218.851562 9.664062 216.636719 12.394531 216.636719 C 15.125 216.636719 17.335938 218.851562 17.335938 221.578125 "
            fill-opacity="1" fill-rule="nonzero" />
    </g>
    <path fill="#C778DD"
        d="M 59.691406 221.578125 C 59.691406 224.308594 57.480469 226.523438 54.75 226.523438 C 52.023438 226.523438 49.808594 224.308594 49.808594 221.578125 C 49.808594 218.851562 52.023438 216.636719 54.75 216.636719 C 57.480469 216.636719 59.691406 218.851562 59.691406 221.578125 "
        fill-opacity="1" fill-rule="nonzero" />
    <path fill="#C778DD"
        d="M 102.050781 221.578125 C 102.050781 224.308594 99.835938 226.523438 97.105469 226.523438 C 94.378906 226.523438 92.167969 224.308594 92.167969 221.578125 C 92.167969 218.851562 94.378906 216.636719 97.105469 216.636719 C 99.835938 216.636719 102.050781 218.851562 102.050781 221.578125 "
        fill-opacity="1" fill-rule="nonzero" />
    <path fill="#C778DD"
        d="M 144.40625 221.578125 C 144.40625 224.308594 142.195312 226.523438 139.464844 226.523438 C 136.734375 226.523438 134.523438 224.308594 134.523438 221.578125 C 134.523438 218.851562 136.734375 216.636719 139.464844 216.636719 C 142.195312 216.636719 144.40625 218.851562 144.40625 221.578125 "
        fill-opacity="1" fill-rule="nonzero" />
    <path fill="#C778DD"
        d="M 186.761719 221.578125 C 186.761719 224.308594 184.550781 226.523438 181.820312 226.523438 C 179.089844 226.523438 176.878906 224.308594 176.878906 221.578125 C 176.878906 218.851562 179.089844 216.636719 181.820312 216.636719 C 184.550781 216.636719 186.761719 218.851562 186.761719 221.578125 "
        fill-opacity="1" fill-rule="nonzero" />
    <path fill="#C778DD"
        d="M 229.117188 221.578125 C 229.117188 224.308594 226.90625 226.523438 224.175781 226.523438 C 221.445312 226.523438 219.234375 224.308594 219.234375 221.578125 C 219.234375 218.851562 221.445312 216.636719 224.175781 216.636719 C 226.90625 216.636719 229.117188 218.851562 229.117188 221.578125 "
        fill-opacity="1" fill-rule="nonzero" />
    <g clip-path="url(#173e79ed68)">
        <path fill="#C778DD"
            d="M 271.472656 221.578125 C 271.472656 224.308594 269.261719 226.523438 266.53125 226.523438 C 263.804688 226.523438 261.589844 224.308594 261.589844 221.578125 C 261.589844 218.851562 263.804688 216.636719 266.53125 216.636719 C 269.261719 216.636719 271.472656 218.851562 271.472656 221.578125 "
            fill-opacity="1" fill-rule="nonzero" />
    </g>
    <g clip-path="url(#b58f42eda6)">
        <path fill="#C778DD"
            d="M 17.335938 263.9375 C 17.335938 266.664062 15.125 268.878906 12.394531 268.878906 C 9.664062 268.878906 7.453125 266.664062 7.453125 263.9375 C 7.453125 261.207031 9.664062 258.996094 12.394531 258.996094 C 15.125 258.996094 17.335938 261.207031 17.335938 263.9375 "
            fill-opacity="1" fill-rule="nonzero" />
    </g>
    <path fill="#C778DD"
        d="M 59.691406 263.9375 C 59.691406 266.664062 57.480469 268.878906 54.75 268.878906 C 52.023438 268.878906 49.808594 266.664062 49.808594 263.9375 C 49.808594 261.207031 52.023438 258.996094 54.75 258.996094 C 57.480469 258.996094 59.691406 261.207031 59.691406 263.9375 "
        fill-opacity="1" fill-rule="nonzero" />
    <path fill="#C778DD"
        d="M 102.050781 263.9375 C 102.050781 266.664062 99.835938 268.878906 97.105469 268.878906 C 94.378906 268.878906 92.167969 266.664062 92.167969 263.9375 C 92.167969 261.207031 94.378906 258.996094 97.105469 258.996094 C 99.835938 258.996094 102.050781 261.207031 102.050781 263.9375 "
        fill-opacity="1" fill-rule="nonzero" />
    <path fill="#C778DD"
        d="M 144.40625 263.9375 C 144.40625 266.664062 142.195312 268.878906 139.464844 268.878906 C 136.734375 268.878906 134.523438 266.664062 134.523438 263.9375 C 134.523438 261.207031 136.734375 258.996094 139.464844 258.996094 C 142.195312 258.996094 144.40625 261.207031 144.40625 263.9375 "
        fill-opacity="1" fill-rule="nonzero" />
    <path fill="#C778DD"
        d="M 186.761719 263.9375 C 186.761719 266.664062 184.550781 268.878906 181.820312 268.878906 C 179.089844 268.878906 176.878906 266.664062 176.878906 263.9375 C 176.878906 261.207031 179.089844 258.996094 181.820312 258.996094 C 184.550781 258.996094 186.761719 261.207031 186.761719 263.9375 "
        fill-opacity="1" fill-rule="nonzero" />
    <path fill="#C778DD"
        d="M 229.117188 263.9375 C 229.117188 266.664062 226.90625 268.878906 224.175781 268.878906 C 221.445312 268.878906 219.234375 266.664062 219.234375 263.9375 C 219.234375 261.207031 221.445312 258.996094 224.175781 258.996094 C 226.90625 258.996094 229.117188 261.207031 229.117188 263.9375 "
        fill-opacity="1" fill-rule="nonzero" />
    <g clip-path="url(#e7b77b72f3)">
        <path fill="#C778DD"
            d="M 271.472656 263.9375 C 271.472656 266.664062 269.261719 268.878906 266.53125 268.878906 C 263.804688 268.878906 261.589844 266.664062 261.589844 263.9375 C 261.589844 261.207031 263.804688 258.996094 266.53125 258.996094 C 269.261719 258.996094 271.472656 261.207031 271.472656 263.9375 "
            fill-opacity="1" fill-rule="nonzero" />
    </g>
    <g clip-path="url(#f821f6a844)">
        <path fill="#C778DD"
            d="M 17.335938 306.28125 C 17.335938 309.011719 15.125 311.222656 12.394531 311.222656 C 9.664062 311.222656 7.453125 309.011719 7.453125 306.28125 C 7.453125 303.554688 9.664062 301.339844 12.394531 301.339844 C 15.125 301.339844 17.335938 303.554688 17.335938 306.28125 "
            fill-opacity="1" fill-rule="nonzero" />
    </g>
    <path fill="#C778DD"
        d="M 59.691406 306.28125 C 59.691406 309.011719 57.480469 311.222656 54.75 311.222656 C 52.023438 311.222656 49.808594 309.011719 49.808594 306.28125 C 49.808594 303.554688 52.023438 301.339844 54.75 301.339844 C 57.480469 301.339844 59.691406 303.554688 59.691406 306.28125 "
        fill-opacity="1" fill-rule="nonzero" />
    <path fill="#C778DD"
        d="M 102.050781 306.28125 C 102.050781 309.011719 99.835938 311.222656 97.105469 311.222656 C 94.378906 311.222656 92.167969 309.011719 92.167969 306.28125 C 92.167969 303.554688 94.378906 301.339844 97.105469 301.339844 C 99.835938 301.339844 102.050781 303.554688 102.050781 306.28125 "
        fill-opacity="1" fill-rule="nonzero" />
    <path fill="#C778DD"
        d="M 144.40625 306.28125 C 144.40625 309.011719 142.195312 311.222656 139.464844 311.222656 C 136.734375 311.222656 134.523438 309.011719 134.523438 306.28125 C 134.523438 303.554688 136.734375 301.339844 139.464844 301.339844 C 142.195312 301.339844 144.40625 303.554688 144.40625 306.28125 "
        fill-opacity="1" fill-rule="nonzero" />
    <path fill="#C778DD"
        d="M 186.761719 306.28125 C 186.761719 309.011719 184.550781 311.222656 181.820312 311.222656 C 179.089844 311.222656 176.878906 309.011719 176.878906 306.28125 C 176.878906 303.554688 179.089844 301.339844 181.820312 301.339844 C 184.550781 301.339844 186.761719 303.554688 186.761719 306.28125 "
        fill-opacity="1" fill-rule="nonzero" />
    <path fill="#C778DD"
        d="M 229.117188 306.28125 C 229.117188 309.011719 226.90625 311.222656 224.175781 311.222656 C 221.445312 311.222656 219.234375 309.011719 219.234375 306.28125 C 219.234375 303.554688 221.445312 301.339844 224.175781 301.339844 C 226.90625 301.339844 229.117188 303.554688 229.117188 306.28125 "
        fill-opacity="1" fill-rule="nonzero" />
    <g clip-path="url(#e9c802d878)">
        <path fill="#C778DD"
            d="M 271.472656 306.28125 C 271.472656 309.011719 269.261719 311.222656 266.53125 311.222656 C 263.804688 311.222656 261.589844 309.011719 261.589844 306.28125 C 261.589844 303.554688 263.804688 301.339844 266.53125 301.339844 C 269.261719 301.339844 271.472656 303.554688 271.472656 306.28125 "
            fill-opacity="1" fill-rule="nonzero" />
    </g>
    <g clip-path="url(#20b7cb9530)">
        <path fill="#C778DD"
            d="M 17.335938 348.363281 C 17.335938 351.09375 15.125 353.304688 12.394531 353.304688 C 9.664062 353.304688 7.453125 351.09375 7.453125 348.363281 C 7.453125 345.636719 9.664062 343.421875 12.394531 343.421875 C 15.125 343.421875 17.335938 345.636719 17.335938 348.363281 "
            fill-opacity="1" fill-rule="nonzero" />
    </g>
    <path fill="#C778DD"
        d="M 59.691406 348.363281 C 59.691406 351.09375 57.480469 353.304688 54.75 353.304688 C 52.023438 353.304688 49.808594 351.09375 49.808594 348.363281 C 49.808594 345.636719 52.023438 343.421875 54.75 343.421875 C 57.480469 343.421875 59.691406 345.636719 59.691406 348.363281 "
        fill-opacity="1" fill-rule="nonzero" />
    <path fill="#C778DD"
        d="M 102.050781 348.363281 C 102.050781 351.09375 99.835938 353.304688 97.105469 353.304688 C 94.378906 353.304688 92.167969 351.09375 92.167969 348.363281 C 92.167969 345.636719 94.378906 343.421875 97.105469 343.421875 C 99.835938 343.421875 102.050781 345.636719 102.050781 348.363281 "
        fill-opacity="1" fill-rule="nonzero" />
    <path fill="#C778DD"
        d="M 144.40625 348.363281 C 144.40625 351.09375 142.195312 353.304688 139.464844 353.304688 C 136.734375 353.304688 134.523438 351.09375 134.523438 348.363281 C 134.523438 345.636719 136.734375 343.421875 139.464844 343.421875 C 142.195312 343.421875 144.40625 345.636719 144.40625 348.363281 "
        fill-opacity="1" fill-rule="nonzero" />
    <path fill="#C778DD"
        d="M 186.761719 348.363281 C 186.761719 351.09375 184.550781 353.304688 181.820312 353.304688 C 179.089844 353.304688 176.878906 351.09375 176.878906 348.363281 C 176.878906 345.636719 179.089844 343.421875 181.820312 343.421875 C 184.550781 343.421875 186.761719 345.636719 186.761719 348.363281 "
        fill-opacity="1" fill-rule="nonzero" />
    <path fill="#C778DD"
        d="M 229.117188 348.363281 C 229.117188 351.09375 226.90625 353.304688 224.175781 353.304688 C 221.445312 353.304688 219.234375 351.09375 219.234375 348.363281 C 219.234375 345.636719 221.445312 343.421875 224.175781 343.421875 C 226.90625 343.421875 229.117188 345.636719 229.117188 348.363281 "
        fill-opacity="1" fill-rule="nonzero" />
    <g clip-path="url(#c42ed4cbd0)">
        <path fill="#C778DD"
            d="M 271.472656 348.363281 C 271.472656 351.09375 269.261719 353.304688 266.53125 353.304688 C 263.804688 353.304688 261.589844 351.09375 261.589844 348.363281 C 261.589844 345.636719 263.804688 343.421875 266.53125 343.421875 C 269.261719 343.421875 271.472656 345.636719 271.472656 348.363281 "
            fill-opacity="1" fill-rule="nonzero" />
    </g>
    <g clip-path="url(#a3be68099d)">
        <path fill="#C778DD"
            d="M 17.335938 390.984375 C 17.335938 393.714844 15.125 395.925781 12.394531 395.925781 C 9.664062 395.925781 7.453125 393.714844 7.453125 390.984375 C 7.453125 388.257812 9.664062 386.042969 12.394531 386.042969 C 15.125 386.042969 17.335938 388.257812 17.335938 390.984375 "
            fill-opacity="1" fill-rule="nonzero" />
    </g>
    <path fill="#C778DD"
        d="M 59.691406 390.984375 C 59.691406 393.714844 57.480469 395.925781 54.75 395.925781 C 52.023438 395.925781 49.808594 393.714844 49.808594 390.984375 C 49.808594 388.257812 52.023438 386.042969 54.75 386.042969 C 57.480469 386.042969 59.691406 388.257812 59.691406 390.984375 "
        fill-opacity="1" fill-rule="nonzero" />
    <path fill="#C778DD"
        d="M 102.050781 390.984375 C 102.050781 393.714844 99.835938 395.925781 97.105469 395.925781 C 94.378906 395.925781 92.167969 393.714844 92.167969 390.984375 C 92.167969 388.257812 94.378906 386.042969 97.105469 386.042969 C 99.835938 386.042969 102.050781 388.257812 102.050781 390.984375 "
        fill-opacity="1" fill-rule="nonzero" />
    <path fill="#C778DD"
        d="M 144.40625 390.984375 C 144.40625 393.714844 142.195312 395.925781 139.464844 395.925781 C 136.734375 395.925781 134.523438 393.714844 134.523438 390.984375 C 134.523438 388.257812 136.734375 386.042969 139.464844 386.042969 C 142.195312 386.042969 144.40625 388.257812 144.40625 390.984375 "
        fill-opacity="1" fill-rule="nonzero" />
    <path fill="#C778DD"
        d="M 186.761719 390.984375 C 186.761719 393.714844 184.550781 395.925781 181.820312 395.925781 C 179.089844 395.925781 176.878906 393.714844 176.878906 390.984375 C 176.878906 388.257812 179.089844 386.042969 181.820312 386.042969 C 184.550781 386.042969 186.761719 388.257812 186.761719 390.984375 "
        fill-opacity="1" fill-rule="nonzero" />
    <path fill="#C778DD"
        d="M 229.117188 390.984375 C 229.117188 393.714844 226.90625 395.925781 224.175781 395.925781 C 221.445312 395.925781 219.234375 393.714844 219.234375 390.984375 C 219.234375 388.257812 221.445312 386.042969 224.175781 386.042969 C 226.90625 386.042969 229.117188 388.257812 229.117188 390.984375 "
        fill-opacity="1" fill-rule="nonzero" />
    <g clip-path="url(#28411522c1)">
        <path fill="#C778DD"
            d="M 271.472656 390.984375 C 271.472656 393.714844 269.261719 395.925781 266.53125 395.925781 C 263.804688 395.925781 261.589844 393.714844 261.589844 390.984375 C 261.589844 388.257812 263.804688 386.042969 266.53125 386.042969 C 269.261719 386.042969 271.472656 388.257812 271.472656 390.984375 "
            fill-opacity="1" fill-rule="nonzero" />
    </g>
    <g clip-path="url(#c2ace0b82c)">
        <path fill="#C778DD"
            d="M 156.789062 54.148438 L 354.839844 54.148438 L 354.839844 252.195312 L 156.789062 252.195312 Z M 156.789062 54.148438 "
            fill-opacity="1" fill-rule="nonzero" />
    </g>
    <g clip-path="url(#f94811b2de)">
        <path fill="#ffffff"
            d="M 187.21875 137.152344 C 187.21875 139.882812 185.007812 142.09375 182.277344 142.09375 C 179.546875 142.09375 177.335938 139.882812 177.335938 137.152344 C 177.335938 134.421875 179.546875 132.210938 182.277344 132.210938 C 185.007812 132.210938 187.21875 134.421875 187.21875 137.152344 "
            fill-opacity="1" fill-rule="nonzero" />
    </g>
    <g clip-path="url(#dd9ef88431)">
        <path fill="#ffffff"
            d="M 229.574219 137.152344 C 229.574219 139.882812 227.363281 142.09375 224.632812 142.09375 C 221.90625 142.09375 219.691406 139.882812 219.691406 137.152344 C 219.691406 134.421875 221.90625 132.210938 224.632812 132.210938 C 227.363281 132.210938 229.574219 134.421875 229.574219 137.152344 "
            fill-opacity="1" fill-rule="nonzero" />
    </g>
    <g clip-path="url(#ab23b264c4)">
        <path fill="#ffffff"
            d="M 271.929688 137.152344 C 271.929688 139.882812 269.71875 142.09375 266.988281 142.09375 C 264.261719 142.09375 262.046875 139.882812 262.046875 137.152344 C 262.046875 134.421875 264.261719 132.210938 266.988281 132.210938 C 269.71875 132.210938 271.929688 134.421875 271.929688 137.152344 "
            fill-opacity="1" fill-rule="nonzero" />
    </g>
    <path fill="#ffffff"
        d="M 187.21875 179.496094 C 187.21875 182.226562 185.007812 184.441406 182.277344 184.441406 C 179.546875 184.441406 177.335938 182.226562 177.335938 179.496094 C 177.335938 176.769531 179.546875 174.554688 182.277344 174.554688 C 185.007812 174.554688 187.21875 176.769531 187.21875 179.496094 "
        fill-opacity="1" fill-rule="nonzero" />
    <path fill="#ffffff"
        d="M 229.574219 179.496094 C 229.574219 182.226562 227.363281 184.441406 224.632812 184.441406 C 221.90625 184.441406 219.691406 182.226562 219.691406 179.496094 C 219.691406 176.769531 221.90625 174.554688 224.632812 174.554688 C 227.363281 174.554688 229.574219 176.769531 229.574219 179.496094 "
        fill-opacity="1" fill-rule="nonzero" />
    <path fill="#ffffff"
        d="M 271.929688 179.496094 C 271.929688 182.226562 269.71875 184.441406 266.988281 184.441406 C 264.261719 184.441406 262.046875 182.226562 262.046875 179.496094 C 262.046875 176.769531 264.261719 174.554688 266.988281 174.554688 C 269.71875 174.554688 271.929688 176.769531 271.929688 179.496094 "
        fill-opacity="1" fill-rule="nonzero" />
    <path fill="#ffffff"
        d="M 187.21875 221.578125 C 187.21875 224.308594 185.007812 226.523438 182.277344 226.523438 C 179.546875 226.523438 177.335938 224.308594 177.335938 221.578125 C 177.335938 218.851562 179.546875 216.636719 182.277344 216.636719 C 185.007812 216.636719 187.21875 218.851562 187.21875 221.578125 "
        fill-opacity="1" fill-rule="nonzero" />
    <path fill="#ffffff"
        d="M 229.574219 221.578125 C 229.574219 224.308594 227.363281 226.523438 224.632812 226.523438 C 221.90625 226.523438 219.691406 224.308594 219.691406 221.578125 C 219.691406 218.851562 221.90625 216.636719 224.632812 216.636719 C 227.363281 216.636719 229.574219 218.851562 229.574219 221.578125 "
        fill-opacity="1" fill-rule="nonzero" />
    <path fill="#ffffff"
        d="M 271.929688 221.578125 C 271.929688 224.308594 269.71875 226.523438 266.988281 226.523438 C 264.261719 226.523438 262.046875 224.308594 262.046875 221.578125 C 262.046875 218.851562 264.261719 216.636719 266.988281 216.636719 C 269.71875 216.636719 271.929688 218.851562 271.929688 221.578125 "
        fill-opacity="1" fill-rule="nonzero" />
</svg>